<?xml version="1.0" standalone="no"?>
<!DOCTYPE svg PUBLIC "-//W3C//DTD SVG 20010904//EN"
 "http://www.w3.org/TR/2001/REC-SVG-20010904/DTD/svg10.dtd">
<svg version="1.0" xmlns="http://www.w3.org/2000/svg"
 width="512.000000pt" height="512.000000pt" viewBox="0 0 512.000000 512.000000"
 preserveAspectRatio="xMidYMid meet">
<metadata>
Created by potrace 1.14, written by Peter Selinger 2001-2017
</metadata>
<g transform="translate(0.000000,512.000000) scale(0.100000,-0.100000)"
fill="#000000" stroke="none">
<path d="M1728 4605 c-1 -2 -34 -6 -73 -9 -73 -7 -272 -32 -315 -41 -30 -6
-123 -23 -165 -30 -16 -3 -38 -8 -47 -11 -9 -3 -25 -6 -35 -8 -44 -9 -155 -39
-228 -62 -396 -126 -681 -304 -822 -513 -33 -50 -37 -62 -39 -130 -1 -42 4
-112 11 -156 7 -44 16 -100 19 -125 3 -25 8 -54 10 -65 2 -11 7 -45 11 -75 4
-30 9 -63 11 -74 2 -10 6 -44 10 -75 3 -31 8 -58 9 -61 2 -3 6 -30 10 -60 7
-60 13 -101 20 -140 2 -14 7 -45 10 -70 4 -25 13 -88 21 -140 8 -52 19 -126
24 -165 32 -232 51 -328 87 -440 72 -225 204 -418 392 -575 338 -282 654 -460
938 -526 149 -35 340 -32 451 7 l31 11 -54 76 c-181 252 -269 433 -314 645
-27 123 -35 212 -35 355 l1 114 -31 -7 c-17 -3 -38 -8 -46 -10 -82 -18 -245
-99 -327 -162 -37 -29 -57 -37 -86 -36 -73 1 -81 52 -30 183 87 221 299 392
518 416 28 4 53 11 57 17 3 5 9 35 13 66 7 62 13 103 20 141 3 14 7 48 10 75
3 28 10 73 15 100 5 28 14 86 20 130 6 44 13 91 15 105 2 14 9 61 15 105 15
103 19 134 25 165 5 28 11 71 20 145 16 123 81 259 161 338 116 114 390 240
614 282 14 3 36 7 50 10 58 11 132 22 175 24 l30 2 -33 28 c-41 35 -195 113
-277 140 -75 25 -212 57 -285 67 -30 4 -66 9 -80 12 -29 5 -496 12 -502 7z
m-337 -1253 c6 -15 8 -53 5 -87 -25 -247 -306 -372 -502 -222 -51 39 -79 78
-105 147 -22 58 -18 105 9 118 21 10 32 10 106 -7 57 -13 165 -11 231 3 17 4
70 27 119 51 97 49 117 48 137 -3z"/>
<path d="M3009 4106 c-2 -2 -38 -6 -79 -10 -75 -6 -84 -7 -170 -20 -193 -30
-433 -127 -536 -218 -54 -47 -84 -116 -99 -228 -4 -25 -8 -61 -11 -80 -3 -19
-9 -60 -14 -90 -5 -30 -12 -71 -14 -90 -5 -43 -65 -448 -70 -475 -2 -11 -7
-45 -11 -75 -7 -59 -9 -72 -24 -170 -6 -36 -13 -83 -16 -105 -2 -22 -6 -49 -9
-60 -2 -11 -7 -45 -11 -75 -4 -30 -9 -64 -12 -75 -3 -11 -6 -87 -7 -170 -6
-306 49 -494 218 -750 70 -107 165 -238 216 -299 128 -152 214 -240 305 -314
39 -31 72 -60 75 -63 13 -16 140 -92 215 -129 368 -178 797 -72 1341 331 50
37 98 74 105 81 8 7 32 26 54 43 75 55 201 190 257 275 103 157 178 352 203
525 3 22 10 65 15 95 13 77 19 124 25 178 3 26 8 54 10 62 2 8 7 35 10 60 3
25 8 56 10 70 3 14 7 43 10 65 2 22 7 58 11 80 3 22 8 54 10 70 2 17 6 41 9
55 2 14 7 45 10 70 9 67 23 162 30 200 2 8 6 38 9 65 4 28 11 79 17 115 22
137 24 157 23 235 0 100 -18 138 -116 241 -65 68 -206 184 -224 184 -4 0 -15
6 -23 14 -26 23 -183 101 -288 144 -178 73 -367 126 -603 171 -122 23 -141 26
-315 47 -112 13 -526 29 -536 20z m150 -1005 c43 -23 109 -82 134 -123 25 -40
45 -126 42 -182 -1 -38 -7 -54 -25 -68 -26 -21 -45 -17 -100 17 -106 66 -273
91 -392 58 -53 -15 -59 -15 -84 2 -24 16 -26 21 -20 62 17 126 122 234 253
261 50 10 144 -3 192 -27z m965 -138 c55 -20 138 -89 164 -137 46 -86 57 -211
22 -246 -22 -22 -61 -21 -89 3 -14 12 -86 50 -101 53 -3 0 -12 4 -20 7 -57 24
-247 33 -280 12 -24 -15 -75 -16 -95 -2 -26 20 -23 72 8 140 39 85 100 143
184 173 53 19 149 17 207 -3z m-1404 -878 c230 -175 460 -271 720 -300 64 -7
229 -7 280 0 19 2 54 7 76 10 34 4 114 23 209 49 14 4 43 15 98 38 63 25 104
21 130 -14 19 -26 19 -29 3 -71 -40 -106 -164 -259 -281 -347 -85 -65 -225
-127 -350 -157 -11 -2 -70 -7 -130 -10 -407 -20 -779 253 -884 649 -37 136
-34 180 12 197 32 12 56 3 117 -44z"/>
</g>
</svg>
